<svg xmlns="http://www.w3.org/2000/svg" xml:space="preserve" width="122.43515mm" height="26.570568mm" viewBox="0 0 122.43515 26.570568"><path fill="#f9f9f9" d="m82.403409 115.1418.02478.0248h4.237551v1.16471q0 1.46208-.74343 2.70113-.718649 1.23905-1.957699 1.95769-1.23905.71865-2.701129.71865H66.81616v-4.23755h14.447323q.470839 0 .792992-.32215.346934-.34693.346934-.81777zm-10.209772-10.77974h14.472104v4.23755H72.193637q-.470839 0-.817773.34694-.322153.32215-.322153.79299 0 .49562.322153.84255.346934.34694.817773.34694h7.359957l2.849815 4.18799v.0496H72.193637q-2.23029 0-3.816274-1.58598-1.561203-1.58599-1.561203-3.81628t1.561203-3.81627q1.585984-1.58599 3.816274-1.58599zm32.845673 0q2.23029 0 3.81628 1.58599 1.58598 1.5612 1.58598 3.79149 0 1.48686-.74343 2.72591-.71865 1.23905-1.9577 1.98248-1.23905.71865-2.70113.71865H94.82954v6.54218h-4.237551v-17.3467zm0 6.54219q.49562 0 .81777-.32216.34694-.34693.34694-.81777 0-.49562-.34694-.81777-.32215-.34694-.81777-.34694H94.82954v2.30464zm28.68247-2.30464h-15.61203v2.30464h15.61203v4.26233h-15.61203v2.30463h15.61203v4.23755H113.8722v-17.3467h19.84958zm19.66216-4.23755h4.26234v14.84382q0 1.0408-.74343 1.78423-.71865.71865-1.75946.71865-1.33817 0-2.05682-1.09036l-7.78123-11.52317q-.34694-.49562-.94168-.49562h-2.32941v13.10915h-4.23756v-13.10915h4.23756l2.84981-4.21277q1.18949.12391 2.23029.74343 1.0408.59475 1.70989 1.61077l4.5597 6.76521z" aria-label="SpeN" font-family="ENOCH" font-size="24.781" letter-spacing=".580802" style="line-height:1;-inkscape-font-specification:ENOCH;text-align:justify" transform="translate(-35.2111282 -99.750128)"/><path fill="#9cee69" d="M13.651358.005069c-1.262721-.03485907-2.523959.11054929-3.7456202.431833-7.0727332 1.8603998-11.3118661 9.0872053-9.48417 16.16846 1.827639 7.081181 9.0346189 11.3537 16.1242002 9.55892 7.089775-1.794917 11.395592-8.982413 9.63327-16.08036l-.061-.23676C24.597003 4.1700429 19.526495.1670128 13.651378.005069Zm3.30391 2.559243 1.82103 3.15437-5.81459 3.35675 1.00118 1.73381.52036-.30035 3.92094 1.89279.0107.0185.0292.007 3.15394-1.82103.50059.86712c.41888.72552.62151 1.50193.60759 2.32978-.002.82075-.20678 1.58725-.61575 2.29885-.40896.71161-.97648 1.27668-1.70201 1.69557l-1.79311 1.03556 1.49103 2.58202-3.1462 1.81631-1.4906-2.58202-5.8146002 3.35675-1.82103-3.15394 5.8145902-3.35718-.99087-1.71576-1.81158 1.0463c-1.1067402.63897-2.2807902.79197-3.5221902.45934-1.2291-.33973-2.16304-1.06277-2.80202-2.16952-.63897-1.10673-.79858-2.27757-.47825-3.51187.33264-1.24139 1.05246-2.18109 2.1592-2.82007l1.81159-1.0463-1.49061-2.58245 3.14578-1.81588 1.4910302 2.58245zm-7.1393402 8.32743-1.81201 1.04587c-.23365.13491-.387.33817-.45977.60974-.0676.25214-.0335.49511.10141.72875.14199.24594.34231.40874.60157.48856.27155.0728.52432.0417.75797-.0932l1.8115902-1.04587zm8.6097402 1.54646-2.64174 1.52498.99044 1.71576 1.7931-1.03513c.23365-.13489.38449-.32878.45204-.58094.0728-.27156.0417-.52391-.0932-.75755z"/></svg>