<svg xmlns="http://www.w3.org/2000/svg" xml:space="preserve" width="142.44838" height="142.44843" viewBox="0 0 37.68947 37.68948"><g transform="translate(-84.10547 -190.6132)"><circle cx="102.9502" cy="209.45795" r="18.84474" fill="#9cee69"/><path fill="#1a1a1a" d="M102.35501 221.9998c-3.74907-.0771-6.98813-.95609-8.38115-2.2747-.42893-.40601-.6806-.80222-.8034-1.26478-.1102-.41497-.04604-1.60377.13464-2.49741.54569-2.6982 2.24634-5.0908 4.62384-6.50513l.11761-.07.09188.0752c.05049.0414.21512.1628.36576.26979 1.01646.72235 2.18853 1.17832 3.46561 1.34828.47301.063 1.48388.0621 1.97065-.00081 1.30185-.17044 2.51606-.65692 3.56987-1.43063l.35093-.25765.11489.0702c1.06295.6483 1.8505 1.32949 2.61766 2.26412 1.38025 1.68152 2.18689 3.91028 2.19036 6.05202.00077.53904-.0335.72581-.19949 1.08232-.18833.40458-.58355.85724-1.04559 1.1975-1.71395 1.26223-5.30678 2.02217-9.18404 1.94256zm-.19025-12.13183c-2.00414-.25716-3.79614-1.42951-4.81048-3.14709-.47866-.8105-.78445-1.74925-.87777-2.69475-.10448-1.05872.07727-2.22993.49242-3.17329 1.01178-2.29898 3.12811-3.79022 5.57942-3.93149 2.16932-.12507 4.11567.74371 5.51358 2.4609 1.00286 1.23188 1.52801 3.01317 1.36496 4.62995-.13265 1.31524-.64673 2.55694-1.46564 3.54007-.24416.29311-.76634.80167-1.03034 1.00344-.91918.70256-2.00317 1.15097-3.13681 1.29753-.42809.0554-1.25452.0628-1.62934.0143z"/></g></svg>